<svg width="56" height="56" viewBox="0 0 56 56" fill="none" xmlns="http://www.w3.org/2000/svg">
<path fill-rule="evenodd" clip-rule="evenodd" d="M19.2912 35.2446C18.8893 35.6597 18.9051 36.3172 19.3266 36.713C19.7482 37.1089 20.4158 37.0933 20.8177 36.6782L27.9999 29.2614L35.1821 36.6782C35.584 37.0933 36.2516 37.1089 36.6732 36.713C37.0947 36.3172 37.1106 35.6597 36.7086 35.2446L29.4573 27.7564L36.2368 20.7554C36.6388 20.3403 36.6229 19.6828 36.2014 19.287C35.7799 18.8911 35.1123 18.9067 34.7103 19.3218L27.9999 26.2515L21.2895 19.3218C20.8875 18.9067 20.2199 18.8911 19.7984 19.287C19.3769 19.6828 19.361 20.3403 19.763 20.7554L26.5426 27.7564L19.2912 35.2446Z" fill="#B3B3B3"/>
</svg>
