<svg width="52" height="52" viewBox="0 0 52 52" fill="none" xmlns="http://www.w3.org/2000/svg">
<circle cx="26" cy="26" r="17.75" stroke="white" stroke-width="2.5"/>
<path fill-rule="evenodd" clip-rule="evenodd" d="M34.8387 28.9289L26.8838 36.8839C26.3956 37.372 25.6042 37.372 25.116 36.8839L17.161 28.9289C16.6729 28.4408 16.6729 27.6493 17.161 27.1612C17.6492 26.673 18.4407 26.673 18.9288 27.1612L24.7499 32.9822L24.7499 17C24.7499 16.3096 25.3095 15.75 25.9999 15.75C26.6902 15.75 27.2499 16.3096 27.2499 17L27.2499 32.9822L33.071 27.1612C33.5591 26.673 34.3506 26.673 34.8387 27.1612C35.3269 27.6493 35.3269 28.4408 34.8387 28.9289Z" fill="white"/>
</svg>
