<svg width="32" height="32" viewBox="0 0 32 32" fill="none" xmlns="http://www.w3.org/2000/svg">
<path fill-rule="evenodd" clip-rule="evenodd" d="M24.5 7H23.9058H23.8979H20.0909C19.4884 7 19 7.48842 19 8.09091C19 8.6934 19.4884 9.18182 20.0909 9.18182H21.2652L18.3216 12.1253C17.8928 12.5542 17.8928 13.2495 18.3216 13.6784C18.7505 14.1072 19.4458 14.1072 19.8746 13.6784L22.8182 10.7348V11.9091C22.8182 12.5116 23.3066 13 23.9091 13C24.5116 13 25 12.5116 25 11.9091V8.0982V8.09807V7.5C25 7.22386 24.7761 7 24.5 7ZM7.5 25H8.09417H8.10212H11.9091C12.5116 25 13 24.5116 13 23.9091C13 23.3066 12.5116 22.8182 11.9091 22.8182H10.7348L13.6784 19.8746C14.1072 19.4458 14.1072 18.7505 13.6784 18.3216C13.2495 17.8928 12.5542 17.8928 12.1254 18.3216L9.18182 21.2652V20.0909C9.18182 19.4884 8.6934 19 8.09091 19C7.48842 19 7 19.4884 7 20.0909V23.9018V23.9019V24.5C7 24.7761 7.22386 25 7.5 25Z" fill="white"/>
</svg>
