<svg width="48" height="48" viewBox="0 0 48 48" fill="none" xmlns="http://www.w3.org/2000/svg">
<path fill-rule="evenodd" clip-rule="evenodd" d="M44 24C44 35.0457 35.0457 44 24 44C12.9543 44 4 35.0457 4 24C4 12.9543 12.9543 4 24 4C35.0457 4 44 12.9543 44 24ZM17 16C17 15.4477 17.4477 15 18 15H21C21.5523 15 22 15.4477 22 16V32C22 32.5523 21.5523 33 21 33H18C17.4477 33 17 32.5523 17 32V16ZM27 15C26.4477 15 26 15.4477 26 16V32C26 32.5523 26.4477 33 27 33H30C30.5523 33 31 32.5523 31 32V16C31 15.4477 30.5523 15 30 15H27Z" fill="white"/>
</svg>
