<svg width="26" height="28" viewBox="0 0 26 28" fill="none" xmlns="http://www.w3.org/2000/svg">
<path d="M17.4198 13.2808C16.6922 14.2174 16.4014 15.4723 16.4983 16.5997C16.5947 17.7217 17.1101 18.9892 18.3222 19.6517L23.9191 22.7108C24.0698 22.8492 24.2812 23.1047 24.4666 23.4254C24.5673 23.5994 24.644 23.7653 24.6932 23.9064C24.7174 23.9761 24.7325 24.0327 24.7411 24.0757C24.7493 24.1162 24.7499 24.1362 24.75 24.1379C24.75 24.138 24.75 24.138 24.75 24.1379V26.75H1.25V24.1379C1.25 24.138 1.25 24.138 1.25001 24.1379C1.25006 24.1362 1.25075 24.1162 1.25888 24.0757C1.2675 24.0327 1.28258 23.9761 1.30682 23.9064C1.35596 23.7653 1.43274 23.5994 1.53335 23.4254C1.71875 23.1047 1.93016 22.8492 2.08086 22.7108L7.67777 19.6517C8.88988 18.9892 9.4053 17.7217 9.5017 16.5997C9.59855 15.4723 9.30781 14.2174 8.58022 13.2808C7.18447 11.484 6.25 9.25437 6.25 7.72414C6.25 4.18955 9.23037 1.25 13 1.25C16.7696 1.25 19.75 4.18955 19.75 7.72414C19.75 9.25437 18.8155 11.484 17.4198 13.2808Z" stroke="#B3B3B3" stroke-width="2.5"/>
</svg>
