<svg width="32" height="32" viewBox="0 0 32 32" fill="none" xmlns="http://www.w3.org/2000/svg">
<path fill-rule="evenodd" clip-rule="evenodd" d="M11.4165 11.1494C11.4165 8.32115 13.6928 6.75 15.5552 6.75C18.0175 6.75 20.0018 8.72612 20.0018 11.1494C20.0018 12.1948 19.3886 13.6903 18.4846 14.8923C18.0185 15.5121 17.796 16.3324 17.8302 17.0964C17.8643 17.8585 18.1656 18.6949 18.9085 19.1938L22.6582 21.7122C22.7647 21.8051 22.9197 21.993 23.0532 22.2299C23.2024 22.4949 23.2497 22.688 23.2497 22.7539V23.9167H15.5552V25.4167H24.7497V22.7539C24.7497 22.3039 24.5547 21.8393 24.3601 21.4937C24.1582 21.1354 23.8792 20.7687 23.5788 20.5269L23.5536 20.5066L19.7448 17.9486C19.5197 17.7974 19.3492 17.4857 19.3287 17.0293C19.3084 16.5748 19.4486 16.1061 19.6834 15.7939C20.6941 14.45 21.5018 12.6419 21.5018 11.1494C21.5018 7.88483 18.833 5.25 15.5552 5.25C12.9735 5.25 9.9165 7.38767 9.9165 11.1494C9.9165 12.994 10.5304 14.1883 11.1941 15.1293C11.355 15.3575 11.5186 15.5705 11.6697 15.7663L11.702 15.8081L11.7021 15.8082C11.8434 15.9913 11.9714 16.1571 12.0901 16.3225C12.3442 16.677 12.5193 16.9823 12.6133 17.3039L14.0531 16.8833C13.8899 16.3247 13.6032 15.8588 13.3092 15.4486C13.1742 15.2604 13.0303 15.0739 12.8926 14.8956L12.8572 14.8499C12.7059 14.6538 12.5602 14.4637 12.4199 14.2648C11.8788 13.4976 11.4165 12.5999 11.4165 11.1494ZM10.5833 26L10.5833 23.4166H8V21.9166H10.5833L10.5833 19.3333H12.0833L12.0833 21.9166H14.6665V23.4166H12.0833L12.0833 26L10.5833 26Z" fill="#B3B3B3"/>
</svg>
