<svg width="32" height="32" viewBox="0 0 32 32" fill="none" xmlns="http://www.w3.org/2000/svg">
<path opacity="0.7" fill-rule="evenodd" clip-rule="evenodd" d="M16.1386 9.74987L9.47906 13.6672C7.50714 14.8272 7.50714 17.6789 9.47906 18.8388L16.1386 22.7562V9.74987ZM8.46502 11.9434C5.17849 13.8766 5.17849 18.6295 8.46502 20.5627L16.6316 25.3666C17.2982 25.7587 18.1386 25.278 18.1386 24.5046V8.00145C18.1386 7.22804 17.2982 6.74738 16.6316 7.13952L8.46502 11.9434ZM19.1388 9.25311C20.1237 9.25311 21.099 9.4471 22.0089 9.82401C22.9189 10.2009 23.7457 10.7534 24.4421 11.4498C25.1385 12.1462 25.691 12.973 26.0679 13.883C26.4448 14.7929 26.6388 15.7682 26.6388 16.7531C26.6388 17.738 26.4448 18.7133 26.0679 19.6232C25.691 20.5332 25.1385 21.36 24.4421 22.0564C23.7457 22.7528 22.9189 23.3053 22.0089 23.6822C21.099 24.0591 20.1237 24.2531 19.1388 24.2531V22.2442C19.8599 22.2442 20.5739 22.1022 21.2401 21.8262C21.9064 21.5503 22.5117 21.1458 23.0216 20.6359C23.5315 20.126 23.936 19.5207 24.2119 18.8545C24.4879 18.1883 24.6299 17.4742 24.6299 16.7531C24.6299 16.032 24.4879 15.318 24.2119 14.6518C23.936 13.9855 23.5315 13.3802 23.0216 12.8703C22.5117 12.3604 21.9064 11.956 21.2401 11.68C20.5739 11.404 19.8599 11.262 19.1388 11.262V9.25311ZM21.3312 14.5362C20.7999 13.8954 20.0532 13.4431 19.2131 13.2531L19.1388 20.2531C19.9827 20.079 20.7389 19.6408 21.2837 19.0101C21.8286 18.3794 22.13 17.5936 22.1386 16.7809C22.1472 15.9683 21.8626 15.177 21.3312 14.5362Z" fill="white"/>
</svg>
